<?xml version="1.0" encoding="utf-8"?>
<svg viewBox="0 0 500 500" xmlns="http://www.w3.org/2000/svg" xmlns:bx="https://boxy-svg.com">
  <path style="fill: rgb(216, 216, 216); paint-order: fill; stroke: rgb(0, 0, 0);" transform="matrix(0.680427, 0, 0, 0.666667, -54.437099, -48.765999)" d="M 412.567287637 73.149 L 482.274712363 73.149 L 507.557288057 181.085918765 A 273.75 273.75 0 0 1 555.745461565 196.743205463 L 639.643223991 124.281128995 L 696.037715229 165.254125224 L 653.048019598 267.437651958 A 273.75 273.75 0 0 1 682.829948682 308.428960706 L 793.296804173 299.119776849 L 814.837583048 365.41547737 L 719.996218659 422.814977951 A 273.75 273.75 0 0 1 719.996218659 473.483022049 L 814.837583048 530.88252263 L 793.296804173 597.178223151 L 682.829948682 587.869039294 A 273.75 273.75 0 0 1 653.048019598 628.860348042 L 696.037715229 731.043874776 L 639.643223991 772.016871005 L 555.745461565 699.554794537 A 273.75 273.75 0 0 1 507.557288057 715.212081235 L 482.274712363 823.149 L 412.567287637 823.149 L 387.284711943 715.212081235 A 273.75 273.75 0 0 1 339.096538435 699.554794537 L 255.198776009 772.016871005 L 198.804284771 731.043874776 L 241.793980402 628.860348042 A 273.75 273.75 0 0 1 212.012051318 587.869039294 L 101.545195827 597.178223151 L 80.004416952 530.88252263 L 174.845781341 473.483022049 A 273.75 273.75 0 0 1 174.845781341 422.814977951 L 80.004416952 365.41547737 L 101.545195827 299.119776849 L 212.012051318 308.428960706 A 273.75 273.75 0 0 1 241.793980402 267.437651958 L 198.804284771 165.254125224 L 255.198776009 124.281128995 L 339.096538435 196.743205463 A 273.75 273.75 0 0 1 387.284711943 181.085918765 Z M 447.421 335.649 A 112.5 112.5 0 0 0 447.421 560.649 A 112.5 112.5 0 0 0 447.421 335.649" bx:shape="cog 447.421 448.149 112.5 273.75 375 0.41 10 1@07b7359e"/>
</svg>